<svg xmlns="http://www.w3.org/2000/svg" width="100" height="100" viewBox="0 0 100 100">
  <title>React Logo</title>
  <path d="M50 1.5C23.5 1.5 1.5 23.5 1.5 50S23.5 98.5 50 98.5 98.5 76.5 98.5 50 76.5 1.5 50 1.5zm0 5c24.8 0 45 20.2 45 45s-20.2 45-45 45S5 71.8 5 50 25.2 6.5 50 6.5zm0 8.5c-20.1 0-36.5 16.4-36.5 36.5S29.9 88 50 88s36.5-16.4 36.5-36.5S70.1 15 50 15zm0 5c17.3 0 31.5 14.2 31.5 31.5S67.3 82 50 82 18.5 67.8 18.5 50 32.7 20 50 20zm0 5c-14.6 0-26.5 11.9-26.5 26.5S35.4 78 50 78s26.5-11.9 26.5-26.5S64.6 25 50 25zm0 5c11.9 0 21.5 9.6 21.5 21.5S61.9 72 50 72 28.5 62.4 28.5 50 38.1 30 50 30z" fill="#61DAFB"/>
</svg>